HIERARCHY
ROOT Hips
{
	OFFSET 0.000000 89.005402 0.000000
	CHANNELS 6 Xposition Yposition Zposition Xrotation Yrotation Zrotation
	JOINT Spine
	{
		OFFSET 0.116900 10.681000 0.373400
		CHANNELS 3 Xrotation Yrotation Zrotation
		JOINT Spine1
		{
			OFFSET 0.000000 13.840401 0.053500
			CHANNELS 3 Xrotation Yrotation Zrotation
			JOINT Spine2
			{
				OFFSET 0.000000 14.712700 -0.366200
				CHANNELS 3 Xrotation Yrotation Zrotation
				JOINT Neck
				{
					OFFSET 0.000000 35.415497 -3.314200
					CHANNELS 3 Xrotation Yrotation Zrotation
					JOINT Head
					{
						OFFSET 0.000000 16.899200 1.218300
						CHANNELS 3 Xrotation Yrotation Zrotation
						JOINT HeadTop_End
						{
							OFFSET 0.000000 22.206207 2.192500
							CHANNELS 3 Xrotation Yrotation Zrotation
							End Site
							{
								OFFSET 0.000000 22.314178 0.000000
							}
						}
					}
				}
				JOINT LeftShoulder
				{
					OFFSET 12.896400 26.716293 -4.548400
					CHANNELS 3 Xrotation Yrotation Zrotation
					JOINT LeftArm
					{
						OFFSET 19.027000 -4.857010 -1.718400
						CHANNELS 3 Xrotation Yrotation Zrotation
						JOINT LeftForeArm
						{
							OFFSET 24.179897 0.000000 0.000000
							CHANNELS 3 Xrotation Yrotation Zrotation
							JOINT LeftHand
							{
								OFFSET 27.156403 0.000000 0.000000
								CHANNELS 3 Xrotation Yrotation Zrotation
								JOINT LeftHandIndex1
								{
									OFFSET 16.441200 0.000000 0.000000
									CHANNELS 3 Xrotation Yrotation Zrotation
									JOINT LeftHandIndex2
									{
										OFFSET 4.821899 0.000000 0.000000
										CHANNELS 3 Xrotation Yrotation Zrotation
										JOINT LeftHandIndex3
										{
											OFFSET 6.386497 0.000000 0.000000
											CHANNELS 3 Xrotation Yrotation Zrotation
											JOINT LeftHandIndex4
											{
												OFFSET 5.188988 0.000000 0.000000
												CHANNELS 3 Xrotation Yrotation Zrotation
												End Site
												{
													OFFSET -0.178703 5.185913 0.000177
												}
											}
										}
									}
								}
								JOINT LeftHandThumb1
								{
									OFFSET 6.534897 -5.032593 5.900300
									CHANNELS 3 Xrotation Yrotation Zrotation
									JOINT LeftHandThumb2
									{
										OFFSET 3.818176 -2.204422 2.204423
										CHANNELS 3 Xrotation Yrotation Zrotation
										JOINT LeftHandThumb3
										{
											OFFSET 3.252098 -1.877594 1.877601
											CHANNELS 3 Xrotation Yrotation Zrotation
											JOINT LeftHandThumb4
											{
												OFFSET 5.251778 -3.032120 3.032117
												CHANNELS 3 Xrotation Yrotation Zrotation
												End Site
												{
													OFFSET 0.000023 6.780014 0.000000
												}
											}
										}
									}
								}
							}
						}
					}
				}
				JOINT RightShoulder
				{
					OFFSET -12.896300 26.716293 -4.548400
					CHANNELS 3 Xrotation Yrotation Zrotation
					JOINT RightArm
					{
						OFFSET -19.027000 -4.857010 -1.718400
						CHANNELS 3 Xrotation Yrotation Zrotation
						JOINT RightForeArm
						{
							OFFSET -24.179897 0.000000 0.000000
							CHANNELS 3 Xrotation Yrotation Zrotation
							JOINT RightHand
							{
								OFFSET -27.156403 0.000000 0.000000
								CHANNELS 3 Xrotation Yrotation Zrotation
								JOINT RightHandThumb1
								{
									OFFSET -6.591202 -4.852203 5.988100
									CHANNELS 3 Xrotation Yrotation Zrotation
									JOINT RightHandThumb2
									{
										OFFSET -3.818176 -2.204422 2.204423
										CHANNELS 3 Xrotation Yrotation Zrotation
										JOINT RightHandThumb3
										{
											OFFSET -3.252098 -1.877594 1.877601
											CHANNELS 3 Xrotation Yrotation Zrotation
											JOINT RightHandThumb4
											{
												OFFSET -5.251778 -3.032120 3.032117
												CHANNELS 3 Xrotation Yrotation Zrotation
												End Site
												{
													OFFSET -0.000023 6.780014 0.000000
												}
											}
										}
									}
								}
								JOINT RightHandIndex1
								{
									OFFSET -16.029404 0.000000 0.000000
									CHANNELS 3 Xrotation Yrotation Zrotation
									JOINT RightHandIndex2
									{
										OFFSET -5.213303 0.000000 0.000000
										CHANNELS 3 Xrotation Yrotation Zrotation
										JOINT RightHandIndex3
										{
											OFFSET -6.386528 0.000000 0.000000
											CHANNELS 3 Xrotation Yrotation Zrotation
											JOINT RightHandIndex4
											{
												OFFSET -5.189026 0.000000 0.000000
												CHANNELS 3 Xrotation Yrotation Zrotation
												End Site
												{
													OFFSET 0.236702 5.183624 0.001972
												}
											}
										}
									}
								}
							}
						}
					}
				}
			}
		}
	}
	JOINT LeftUpLeg
	{
		OFFSET 14.073000 -7.904099 -1.463000
		CHANNELS 3 Xrotation Yrotation Zrotation
		JOINT LeftLeg
		{
			OFFSET -0.109806 -34.073280 4.093200
			CHANNELS 3 Xrotation Yrotation Zrotation
			JOINT LeftFoot
			{
				OFFSET 0.109806 -29.899420 -6.319000
				CHANNELS 3 Xrotation Yrotation Zrotation
				JOINT LeftToeBase
				{
					OFFSET 1.551100 -14.988700 20.535801
					CHANNELS 3 Xrotation Yrotation Zrotation
					JOINT LeftToe_End
					{
						OFFSET 0.221200 0.570800 13.248301
						CHANNELS 3 Xrotation Yrotation Zrotation
						End Site
						{
							OFFSET 0.000000 13.262435 0.000000
						}
					}
				}
			}
		}
	}
	JOINT RightUpLeg
	{
		OFFSET -13.839300 -7.904099 -1.463000
		CHANNELS 3 Xrotation Yrotation Zrotation
		JOINT RightLeg
		{
			OFFSET 0.109694 -34.073219 4.093300
			CHANNELS 3 Xrotation Yrotation Zrotation
			JOINT RightFoot
			{
				OFFSET -0.109694 -29.899384 -6.319200
				CHANNELS 3 Xrotation Yrotation Zrotation
				JOINT RightToeBase
				{
					OFFSET -1.551100 -14.988700 20.535801
					CHANNELS 3 Xrotation Yrotation Zrotation
					JOINT RightToe_End
					{
						OFFSET -0.221200 0.570900 13.248299
						CHANNELS 3 Xrotation Yrotation Zrotation
						End Site
						{
							OFFSET 0.000000 13.262440 0.000000
						}
					}
				}
			}
		}
	}
}
MOTION
Frames: 4
Frame Time: 0.033333
0.092878 50.685410 9.218209 0.145868 0.070914 0.868532 10.430314 0.122390 -1.494239 -0.199258 0.213327 -0.355472 -0.199583 0.248527 -0.300889 -1.001767 -1.284342 0.469464 -8.883499 -4.327063 -5.321561 0.000000 -0.000001 -0.000000 0.823522 -15.262024 -7.868748 4.746731 -21.216419 -54.862224 -0.000005 -62.197547 -0.000005 31.062980 4.315264 41.770217 -0.230181 2.800099 -26.912871 0.396818 2.121270 -21.189304 0.083124 0.984458 -9.653129 -0.000001 0.000001 -0.000000 6.610623 1.798229 20.801490 2.716394 20.172586 -24.389161 -5.537238 29.849515 5.070889 -0.000001 0.000001 0.000000 3.171094 -4.378723 8.782886 -3.950253 37.253409 63.733649 0.000029 55.137928 -0.000021 43.537306 4.741017 -36.277962 -9.383506 -1.613362 -17.604708 3.557065 -24.337012 34.656834 -6.608472 -37.497325 -11.176187 -0.000001 0.000001 0.000001 2.957832 1.012843 13.529999 0.472462 -2.045675 26.006744 0.059749 -0.744408 9.177794 -0.000001 -0.000001 0.000003 -88.309592 -8.301565 14.585630 82.350197 2.951583 -0.536915 7.631901 -6.783814 -8.242753 -0.103120 0.000004 0.000000 -0.000000 0.000000 -0.000000 -89.571927 9.723736 -10.619617 82.899714 -2.607275 -1.082689 8.619557 -0.171922 9.305296 -0.183748 0.000005 -0.000000 -0.000000 0.000001 0.000000 
0.085620 50.733345 9.078805 -0.435991 -0.124817 1.112098 10.623330 0.273381 -1.468289 0.184542 0.445956 -0.269933 0.185227 0.480283 -0.215518 -1.986281 -1.180071 -1.009583 -8.663990 -6.663368 -2.936512 0.000000 0.000000 -0.000000 -0.806829 -15.045286 -7.032408 4.898727 -23.128048 -55.970033 0.000004 -59.990125 -0.000000 30.969112 3.674122 41.975334 -0.230638 2.793627 -26.852593 0.396461 2.120320 -21.179337 0.082960 0.983447 -9.643206 -0.000002 -0.000000 -0.000002 6.623859 1.830694 20.837101 2.237700 19.756230 -24.646019 -5.604890 29.981559 5.043839 -0.000001 -0.000003 -0.000000 3.010047 -4.815593 5.359565 -2.263055 36.619776 61.229163 0.000050 61.448985 -0.000062 36.783133 6.782742 -19.881550 0.699184 1.196177 -23.313507 0.804542 -19.545201 31.070227 -10.949555 -26.538056 -13.588931 0.000001 0.000002 -0.000001 1.936400 2.211071 3.624413 0.196743 -1.340675 16.695974 0.026910 -0.500509 6.155957 -0.000001 -0.000002 -0.000001 -87.431913 -8.189315 14.630583 82.116892 2.953293 -0.479102 7.604517 -6.731946 -8.693087 -0.141244 -0.000002 -0.000002 0.000000 -0.000000 -0.000000 -89.127862 9.655055 -10.668428 82.735557 -2.337346 -1.095375 8.816457 -0.167262 9.028098 -0.183731 -0.000000 0.000001 -0.000000 0.000000 0.000000 
0.062261 50.839111 8.951825 -1.170917 -0.098629 1.445485 10.729146 0.290131 -1.472276 0.388388 0.431296 -0.290680 0.389211 0.465090 -0.236677 -2.905076 -0.896344 -2.680302 -7.908666 -8.412143 -0.589038 -0.000000 -0.000001 -0.000000 -2.403167 -14.760498 -6.181669 5.339996 -24.713323 -57.060971 0.000021 -57.595201 0.000024 32.094144 3.118760 41.387070 -0.231073 2.787584 -26.796883 0.395966 2.119050 -21.165848 0.082723 0.982096 -9.629737 0.000001 -0.000001 0.000003 6.636664 1.862582 20.871839 1.762864 19.350197 -24.894677 -5.672320 30.110196 5.017550 -0.000001 0.000004 0.000001 3.469751 -5.677228 0.886821 0.315519 36.839042 57.794636 0.000010 68.652267 -0.000007 28.115588 10.160990 -4.574393 11.772688 1.170576 -27.417062 -2.158104 -17.495275 24.963095 -10.045669 -24.181159 -10.087767 0.000001 -0.000001 -0.000001 1.669846 2.531180 -0.885636 0.121386 -1.057471 13.096385 0.028656 -0.516442 6.352899 0.000001 -0.000000 0.000003 -86.435129 -7.788722 14.529675 81.815776 2.961510 -0.490940 7.623546 -6.695999 -8.680301 -0.141052 0.000002 -0.000000 0.000000 -0.000001 -0.000000 -88.415685 9.725475 -10.932924 82.677889 -2.091652 -1.105040 8.852600 -0.176082 8.830513 -0.183729 0.000008 -0.000001 -0.000000 0.000000 0.000000 
-0.026688 50.871635 8.918097 -1.471945 -0.198391 1.692800 10.670198 0.057600 -1.568320 0.271777 0.016453 -0.543627 0.271037 0.050249 -0.490412 -3.353900 -0.418224 -4.106340 -7.045688 -8.958833 1.561571 0.000000 -0.000001 -0.000000 -4.007145 -14.496800 -5.286720 7.646108 -24.892049 -57.365243 -0.000006 -57.326850 -0.000018 34.219275 3.898972 40.419021 -0.231437 2.782125 -26.746032 0.395308 2.117379 -21.148460 0.082440 0.980342 -9.612308 0.000001 -0.000001 -0.000002 6.649014 1.893826 20.905580 1.292084 18.955496 -25.132470 -5.738144 30.234324 4.992083 0.000001 -0.000000 -0.000000 4.623781 -6.312080 -3.709463 4.248644 38.106302 51.621501 0.000008 75.865862 -0.000027 16.788402 10.607052 9.897517 21.809127 1.500704 -29.718594 -2.521045 -17.393317 19.635057 -5.514536 -29.822956 -4.537886 0.000001 0.000000 -0.000002 1.595471 2.276405 -1.117095 0.122231 -1.061056 13.141544 0.045943 -0.653317 8.046509 -0.000000 0.000000 0.000001 -85.949127 -7.521263 14.805654 81.727906 3.027363 -0.608977 7.567433 -6.866753 -8.588762 -0.131942 0.000003 0.000000 0.000000 -0.000001 -0.000000 -88.250115 9.712363 -10.952309 82.727934 -1.944819 -1.112067 8.866439 -0.189323 8.590920 -0.183741 0.000004 0.000001 -0.000000 0.000000 -0.000000 
